                  Hanover Street 1979 DVDRip Xvid LKRG


RIPPER                           : fasamoo
Format                           : AVI
Format/Info                      : Audio Video Interleave
File size                        : 700 MiB
Duration                         : 1h 48mn
Overall bit rate                 : 900 Kbps
Writing application              : VirtualDubMod 1.5.4.1 (build 2178/release)
Writing library                  : VirtualDubMod build 2178/release
Language                         : English
Subtitles                        : None
Genre                            : Action | Adventure | Drama | Romance                          | War

Video
ID                               : 0
Format                           : MPEG-4 Visual
Format profile                   : Advanced Simple@L5
Format settings, BVOP            : Yes
Format settings, QPel            : No
Format settings, GMC             : No warppoints
Format settings, Matrix          : Custom
Codec ID                         : XVID
Codec ID/Hint                    : XviD
Duration                         : 1h 48mn
Bit rate                         : 767 Kbps
Width                            : 608 pixels
Height                           : 256 pixels
Display aspect ratio             : 2.35:1
Frame rate                       : 23.976 fps
Color space                      : YUV
Chroma subsampling               : 4:2:0
Bit depth                        : 8 bits
Scan type                        : Progressive
Bits/(Pixel*Frame)               : 0.206
Stream size                      : 597 MiB (85%)
Writing library                  : XviD 1.2.1 (UTC 2008-12-04)

Audio
ID                               : 1
Format                           : MPEG Audio
Format version                   : Version 1
Format profile                   : Layer 3
Mode                             : Joint stereo
Mode extension                   : MS Stereo
Codec ID                         : 55
Codec ID/Hint                    : MP3
Duration                         : 1h 48mn
Bit rate mode                    : Variable
Bit rate                         : 120 Kbps
Nominal bit rate                 : 128 Kbps
Channel(s)                       : 2 channels
Sampling rate                    : 48.0 KHz
Stream size                      : 93.2 MiB (13%)
Alignment                        : Aligned on interleaves
Interleave, duration             : 24 ms (0.58 video frame)
Interleave, preload duration     : 153 ms
Writing library                  : LAME3.98r
Encoding settings                : -m j -V 4 -q 2 -lowpass 17 --abr 128


                                 PLOT

During the Second World War, an American Pilot stationed in England meets a young British nurse during an air raid on London. The two instantly fall in love, despite the fact that the young Nurse is already married; a secret she keeps hidden from her American lover. After being shot down behind enemy lines, while being assigned to ferry a British agent into France, the American pilot realizes that his secret agent cargo is in fact his lover's husband, and that the two must now work together in order to survive. 

  







                                 IMBD
                     
                    http://www.imdb.com/title/tt0079268/
 
http://leetleech.org/images/84883425888569270448.png 
http://leetleech.org/images/50310393342848781246.png 
http://leetleech.org/images/61868917851201468216.png 
http://leetleech.org/images/23846328368206039539.png 
http://leetleech.org/images/90616383878517441749.png 
http://leetleech.org/images/64628499017222715537.png 
http://leetleech.org/images/91803283313156398701.png
